<svg xmlns="http://www.w3.org/2000/svg" viewBox="0 0 640 330"><rect width="640" height="330" fill="#00231b"/><path d="M0 40H640M0 290H640" stroke="#176751"/><text x="25" y="30" fill="#6cd7be" font-family="monospace" font-size="12">GOVERNED WORKFLOW · ILLUSTRATIVE</text><rect x="28" y="62" width="584" height="42" rx="5" fill="#013a2b" stroke="#26846c"/><circle cx="50" cy="83" r="9" fill="#00d8b4"/><path d="m46 83 3 3 5-6" fill="none" stroke="#003629" stroke-width="2"/><text x="72" y="88" fill="#c6e8dc" font-family="monospace" font-size="16">Identity verified</text><text x="475" y="88" fill="#55d8bd" font-family="monospace" font-size="12">APPROVED</text><rect x="28" y="115" width="584" height="42" rx="5" fill="#013a2b" stroke="#26846c"/><circle cx="50" cy="136" r="9" fill="#00d8b4"/><path d="m46 136 3 3 5-6" fill="none" stroke="#003629" stroke-width="2"/><text x="72" y="141" fill="#c6e8dc" font-family="monospace" font-size="16">Mandate matched</text><text x="475" y="141" fill="#55d8bd" font-family="monospace" font-size="12">APPROVED</text><rect x="28" y="168" width="584" height="42" rx="5" fill="#013a2b" stroke="#26846c"/><circle cx="50" cy="189" r="9" fill="#00d8b4"/><path d="m46 189 3 3 5-6" fill="none" stroke="#003629" stroke-width="2"/><text x="72" y="194" fill="#c6e8dc" font-family="monospace" font-size="16">Policy evaluated</text><text x="475" y="194" fill="#55d8bd" font-family="monospace" font-size="12">AUTHORIZED</text><rect x="28" y="221" width="584" height="42" rx="5" fill="#013a2b" stroke="#26846c"/><circle cx="50" cy="242" r="9" fill="#00d8b4"/><path d="m46 242 3 3 5-6" fill="none" stroke="#003629" stroke-width="2"/><text x="72" y="247" fill="#c6e8dc" font-family="monospace" font-size="16">Execution recorded</text><text x="475" y="247" fill="#55d8bd" font-family="monospace" font-size="12">RECORDED</text></svg>