<svg xmlns="http://www.w3.org/2000/svg" class="svg-library" aria-hidden="true"><symbol id="i-user" viewBox="0 0 32 32" fill="none" stroke="currentColor" stroke-width="1.7" stroke-linecap="round" stroke-linejoin="round"><circle cx="16" cy="9" r="5"/><path d="M6 28v-3a10 10 0 0 1 20 0v3Z"/></symbol><symbol id="i-file" viewBox="0 0 32 32" fill="none" stroke="currentColor" stroke-width="1.7" stroke-linecap="round" stroke-linejoin="round"><path d="M8 3h11l6 6v20H8Z"/><path d="M19 3v7h6M12 15h9M12 20h9M12 25h6"/></symbol><symbol id="i-shield" viewBox="0 0 32 32" fill="none" stroke="currentColor" stroke-width="1.7" stroke-linecap="round" stroke-linejoin="round"><path d="M16 3c4 3 7 4 11 4v8c0 7-4.5 11-11 15C9.5 26 5 22 5 15V7c4 0 7-1 11-4Z"/><path d="m11 16 3.5 3.5L22 12"/></symbol><symbol id="i-gear" viewBox="0 0 32 32" fill="none" stroke="currentColor" stroke-width="1.7" stroke-linecap="round" stroke-linejoin="round"><path d="m13 3-.7 3.5-2.6 1.1-3-1.9-3.1 5.4 3 2-.4 2.9.4 2.9-3 2 3.1 5.4 3-1.9 2.6 1.1.7 3.5h6l.7-3.5 2.6-1.1 3 1.9 3.1-5.4-3-2 .4-2.9-.4-2.9 3-2-3.1-5.4-3 1.9-2.6-1.1L19 3Z"/><circle cx="16" cy="16" r="5"/></symbol><symbol id="i-layers" viewBox="0 0 32 32" fill="none" stroke="currentColor" stroke-width="1.7" stroke-linecap="round" stroke-linejoin="round"><path d="m3 10 13-7 13 7-13 7ZM3 16l13 7 13-7M3 22l13 7 13-7"/></symbol><symbol id="i-play" viewBox="0 0 32 32" fill="none" stroke="currentColor" stroke-width="1.7" stroke-linecap="round" stroke-linejoin="round"><circle cx="16" cy="16" r="13"/><path d="m13 10 9 6-9 6Z"/></symbol><symbol id="i-bank" viewBox="0 0 32 32" fill="none" stroke="currentColor" stroke-width="1.7" stroke-linecap="round" stroke-linejoin="round"><path d="m3 10 13-7 13 7ZM5 12h22M7 13v12M13 13v12M19 13v12M25 13v12M5 25h22v4H5Z"/></symbol><symbol id="i-network" viewBox="0 0 32 32" fill="none" stroke="currentColor" stroke-width="1.7" stroke-linecap="round" stroke-linejoin="round"><circle cx="16" cy="6" r="4"/><circle cx="6" cy="25" r="4"/><circle cx="26" cy="25" r="4"/><path d="m14 10-6 11M18 10l6 11M10 25h12"/></symbol><symbol id="i-cube" viewBox="0 0 32 32" fill="none" stroke="currentColor" stroke-width="1.7" stroke-linecap="round" stroke-linejoin="round"><path d="m16 2 13 7.5v13L16 30 3 22.5v-13ZM3 9.5 16 17l13-7.5M16 17v13M9.5 5.8l13 7.5"/></symbol><symbol id="i-servers" viewBox="0 0 32 32" fill="none" stroke="currentColor" stroke-width="1.7" stroke-linecap="round" stroke-linejoin="round"><rect x="5" y="3" width="22" height="8" rx="2"/><rect x="5" y="12" width="22" height="8" rx="2"/><rect x="5" y="21" width="22" height="8" rx="2"/><path d="M9 7h.1M9 16h.1M9 25h.1M18 7h5M18 16h5M18 25h5"/></symbol><symbol id="i-chip" viewBox="0 0 32 32" fill="none" stroke="currentColor" stroke-width="1.7" stroke-linecap="round" stroke-linejoin="round"><rect x="7" y="7" width="18" height="18" rx="2"/><rect x="11" y="11" width="10" height="10" rx="1"/><path d="M11 3v4M16 3v4M21 3v4M11 25v4M16 25v4M21 25v4M3 11h4M3 16h4M3 21h4M25 11h4M25 16h4M25 21h4"/></symbol><symbol id="i-chart" viewBox="0 0 32 32" fill="none" stroke="currentColor" stroke-width="1.7" stroke-linecap="round" stroke-linejoin="round"><path d="M4 28h25M7 25V15M14 25V9M21 25V3M28 25V12"/></symbol><symbol id="i-wallet" viewBox="0 0 32 32" fill="none" stroke="currentColor" stroke-width="1.7" stroke-linecap="round" stroke-linejoin="round"><path d="M27 10V7a3 3 0 0 0-3-3H8a4 4 0 0 0-4 4v17a3 3 0 0 0 3 3h20V11H8a3 3 0 0 1 0-6"/><path d="M27 16h-7a3 3 0 0 0 0 6h7M20 19h.1"/></symbol><symbol id="i-people" viewBox="0 0 32 32" fill="none" stroke="currentColor" stroke-width="1.7" stroke-linecap="round" stroke-linejoin="round"><circle cx="16" cy="9" r="4"/><path d="M9 28v-5a7 7 0 0 1 14 0v5ZM7 6a4 4 0 0 0 0 8M25 6a4 4 0 0 1 0 8M6 18a5 5 0 0 0-4 5v4h3M26 18a5 5 0 0 1 4 5v4h-3"/></symbol><symbol id="i-database" viewBox="0 0 32 32" fill="none" stroke="currentColor" stroke-width="1.7" stroke-linecap="round" stroke-linejoin="round"><ellipse cx="16" cy="7" rx="11" ry="4"/><path d="M5 7v18c0 2.2 4.9 4 11 4s11-1.8 11-4V7M5 13c0 2.2 4.9 4 11 4s11-1.8 11-4M5 19c0 2.2 4.9 4 11 4s11-1.8 11-4"/></symbol><symbol id="i-lock" viewBox="0 0 32 32" fill="none" stroke="currentColor" stroke-width="1.7" stroke-linecap="round" stroke-linejoin="round"><rect x="7" y="14" width="18" height="15" rx="2"/><path d="M11 14V8a5 5 0 0 1 10 0v6M16 21v3"/><circle cx="16" cy="20" r="1"/></symbol><symbol id="i-check" viewBox="0 0 32 32" fill="none" stroke="currentColor" stroke-width="1.7" stroke-linecap="round" stroke-linejoin="round"><path d="m6 16 6.5 6.5L26 9"/></symbol><symbol id="i-search" viewBox="0 0 32 32" fill="none" stroke="currentColor" stroke-width="1.7" stroke-linecap="round" stroke-linejoin="round"><circle cx="13.5" cy="13.5" r="9.5"/><path d="m21 21 8 8"/></symbol><symbol id="i-refresh" viewBox="0 0 32 32" fill="none" stroke="currentColor" stroke-width="1.7" stroke-linecap="round" stroke-linejoin="round"><path d="M28 12A12 12 0 0 0 7 7L3 12M3 5v7h7M4 20a12 12 0 0 0 21 5l4-5M29 27v-7h-7"/></symbol><symbol id="i-sliders" viewBox="0 0 32 32" fill="none" stroke="currentColor" stroke-width="1.7" stroke-linecap="round" stroke-linejoin="round"><path d="M3 7h8M17 7h12M3 16h15M24 16h5M3 25h5M14 25h15"/><circle cx="14" cy="7" r="3"/><circle cx="21" cy="16" r="3"/><circle cx="11" cy="25" r="3"/></symbol><symbol id="i-star" viewBox="0 0 32 32" fill="none" stroke="currentColor" stroke-width="1.7" stroke-linecap="round" stroke-linejoin="round"><path d="m16 2 4.3 9 9.7 1.4-7 6.8 1.7 9.7-8.7-4.6-8.7 4.6L9 19.2l-7-6.8 9.7-1.4Z"/></symbol><symbol id="i-bolt" viewBox="0 0 32 32" fill="none" stroke="currentColor" stroke-width="1.7" stroke-linecap="round" stroke-linejoin="round"><path d="m19 2-14 17h10l-2 11 14-18H17Z"/></symbol><symbol id="i-code" viewBox="0 0 32 32" fill="none" stroke="currentColor" stroke-width="1.7" stroke-linecap="round" stroke-linejoin="round"><path d="M11 4H8a3 3 0 0 0-3 3v5c0 3-2 4-3 4 1 0 3 1 3 4v5a3 3 0 0 0 3 3h3M21 4h3a3 3 0 0 1 3 3v5c0 3 2 4 3 4-1 0-3 1-3 4v5a3 3 0 0 1-3 3h-3"/></symbol><symbol id="i-terminal" viewBox="0 0 32 32" fill="none" stroke="currentColor" stroke-width="1.7" stroke-linecap="round" stroke-linejoin="round"><path d="m5 6 10 10L5 26M18 26h11"/></symbol><symbol id="i-copy" viewBox="0 0 32 32" fill="none" stroke="currentColor" stroke-width="1.7" stroke-linecap="round" stroke-linejoin="round"><rect x="10" y="9" width="17" height="20" rx="2"/><path d="M21 9V5a2 2 0 0 0-2-2H7a2 2 0 0 0-2 2v17a2 2 0 0 0 2 2h3"/></symbol><symbol id="i-globe" viewBox="0 0 32 32" fill="none" stroke="currentColor" stroke-width="1.7" stroke-linecap="round" stroke-linejoin="round"><circle cx="16" cy="16" r="13"/><ellipse cx="16" cy="16" rx="6" ry="13"/><path d="M4 10h24M3 16h26M4 22h24"/></symbol><symbol id="i-pin" viewBox="0 0 32 32" fill="none" stroke="currentColor" stroke-width="1.7" stroke-linecap="round" stroke-linejoin="round"><path d="M26 12c0 8-10 17-10 17S6 20 6 12a10 10 0 0 1 20 0Z"/><circle cx="16" cy="12" r="3.5"/></symbol><symbol id="i-arrow-right" viewBox="0 0 32 32" fill="none" stroke="currentColor" stroke-width="1.7" stroke-linecap="round" stroke-linejoin="round"><path d="M3 16h25M20 8l8 8-8 8"/></symbol><symbol id="i-chevron-down" viewBox="0 0 32 32" fill="none" stroke="currentColor" stroke-width="1.7" stroke-linecap="round" stroke-linejoin="round"><path d="m7 12 9 9 9-9"/></symbol><symbol id="i-menu" viewBox="0 0 32 32" fill="none" stroke="currentColor" stroke-width="1.7" stroke-linecap="round" stroke-linejoin="round"><path d="M5 8h22M5 16h22M5 24h22"/></symbol><symbol id="i-close" viewBox="0 0 32 32" fill="none" stroke="currentColor" stroke-width="1.7" stroke-linecap="round" stroke-linejoin="round"><path d="m7 7 18 18M25 7 7 25"/></symbol><symbol id="i-headphones" viewBox="0 0 32 32" fill="none" stroke="currentColor" stroke-width="1.7" stroke-linecap="round" stroke-linejoin="round"><path d="M5 18v-4a11 11 0 0 1 22 0v4"/><rect x="3" y="16" width="6" height="12" rx="2"/><rect x="23" y="16" width="6" height="12" rx="2"/></symbol><symbol id="i-book" viewBox="0 0 32 32" fill="none" stroke="currentColor" stroke-width="1.7" stroke-linecap="round" stroke-linejoin="round"><path d="M16 7c-4-3-8-4-13-2v22c5-2 9-1 13 2 4-3 8-4 13-2V5c-5-2-9-1-13 2ZM16 7v22"/></symbol><symbol id="i-message" viewBox="0 0 32 32" fill="none" stroke="currentColor" stroke-width="1.7" stroke-linecap="round" stroke-linejoin="round"><path d="M7 4h20a2 2 0 0 1 2 2v17a2 2 0 0 1-2 2H13L5 30V6a2 2 0 0 1 2-2ZM10 10h14M10 16h10"/></symbol><symbol id="i-cloud" viewBox="0 0 32 32" fill="none" stroke="currentColor" stroke-width="1.7" stroke-linecap="round" stroke-linejoin="round"><path d="M9 25H24a6 6 0 0 0 0-12h-1a8 8 0 0 0-15-3 7.5 7.5 0 0 0 1 15Z"/></symbol><symbol id="i-gauge" viewBox="0 0 32 32" fill="none" stroke="currentColor" stroke-width="1.7" stroke-linecap="round" stroke-linejoin="round"><path d="M6 27a13 13 0 1 1 20 0ZM6 21l3-1M8 10l3 3M16 5v4M24 10l-3 3M26 21l-3-1M16 22l6-8"/><circle cx="16" cy="22" r="2"/></symbol></svg>